<svg width="142" height="43" viewBox="0 0 142 43" fill="none" xmlns="http://www.w3.org/2000/svg">
<path d="M70.332 29.7C69.2867 30.2787 67.6533 30.568 65.432 30.568C62.24 30.568 59.692 29.5973 57.788 27.656C55.9027 25.6773 54.96 23.0733 54.96 19.844C54.96 16.652 55.9213 14.0667 57.844 12.088C59.7667 10.1093 62.296 9.12 65.432 9.12C67.7093 9.12 69.3427 9.372 70.332 9.876L70.108 12.732C68.8387 12.228 67.28 11.976 65.432 11.976C63.1733 11.976 61.372 12.704 60.028 14.16C58.684 15.616 58.012 17.5107 58.012 19.844C58.012 22.2707 58.6653 24.1747 59.972 25.556C61.2973 26.9933 63.1173 27.712 65.432 27.712C67.392 27.712 68.9507 27.404 70.108 26.788L70.332 29.7ZM83.0038 17.8C82.7611 17.7627 82.5371 17.7347 82.3318 17.716C82.1264 17.6787 81.9211 17.66 81.7158 17.66C80.6331 17.66 79.8304 18.192 79.3078 19.256C78.8224 20.1893 78.5798 21.3467 78.5798 22.728V30.316H75.5838V18.78C75.5838 18.0707 75.5651 17.408 75.5278 16.792C75.5091 16.1573 75.4811 15.5693 75.4438 15.028H78.4678V16.904C79.3264 15.4293 80.4184 14.692 81.7438 14.692C82.1544 14.692 82.5744 14.748 83.0038 14.86V17.8ZM97.0676 15.056L91.5236 30.54C91.057 31.8467 90.5716 32.752 90.0676 33.256C89.4516 33.9467 88.6303 34.3013 87.6036 34.32H87.3236C86.6143 34.32 85.8863 34.2267 85.1396 34.04L85.4476 31.24C86.101 31.4827 86.633 31.604 87.0436 31.604C87.081 31.604 87.1556 31.5947 87.2676 31.576C87.3983 31.576 87.5663 31.5667 87.7716 31.548C88.201 31.5107 88.593 30.8853 88.9476 29.672L89.1716 28.944L84.1036 15.056H87.1836L90.5716 25.276L94.0996 15.056H97.0676ZM102.588 34.32H99.6482V15H102.588L102.504 16.708C102.579 16.6147 102.672 16.5027 102.784 16.372C102.896 16.2227 103.027 16.0733 103.176 15.924C103.998 15.1027 105.108 14.692 106.508 14.692C108.562 14.692 110.139 15.3827 111.24 16.764C112.211 18.0333 112.696 19.8253 112.696 22.14C112.696 24.492 112.183 26.3587 111.156 27.74C110.074 29.2147 108.496 29.952 106.424 29.952C104.763 29.952 103.484 29.3453 102.588 28.132V34.32ZM106.172 17.408C105.015 17.408 104.119 17.8933 103.484 18.864C102.887 19.7413 102.588 20.8893 102.588 22.308C102.588 23.6893 102.878 24.8373 103.456 25.752C104.11 26.7413 104.996 27.236 106.116 27.236C108.543 27.236 109.756 25.5653 109.756 22.224C109.756 19.0133 108.562 17.408 106.172 17.408ZM124.021 30.204C123.311 30.5027 122.509 30.652 121.613 30.652C119.839 30.652 118.691 30.176 118.169 29.224C117.777 28.5893 117.581 27.3667 117.581 25.556V17.632H115.173V14.86H117.581V11.528L120.605 10.548V14.86H123.573V17.632H120.605V26.34C120.605 27.4227 121.099 27.964 122.089 27.964C122.742 27.964 123.311 27.8427 123.797 27.6L124.021 30.204ZM133.073 17.324C131.803 17.324 130.795 17.828 130.049 18.836C129.339 19.8253 128.985 21.104 128.985 22.672C128.985 24.24 129.339 25.5187 130.049 26.508C130.795 27.516 131.803 28.02 133.073 28.02C134.342 28.02 135.341 27.516 136.069 26.508C136.797 25.5373 137.161 24.2587 137.161 22.672C137.161 21.104 136.797 19.8253 136.069 18.836C135.341 17.828 134.342 17.324 133.073 17.324ZM133.073 14.692C135.387 14.692 137.189 15.5227 138.477 17.184C139.634 18.6587 140.213 20.488 140.213 22.672C140.213 24.856 139.634 26.6853 138.477 28.16C137.189 29.8213 135.387 30.652 133.073 30.652C130.739 30.652 128.929 29.8213 127.641 28.16C126.502 26.7227 125.933 24.8933 125.933 22.672C125.933 20.4507 126.502 18.6213 127.641 17.184C128.929 15.5227 130.739 14.692 133.073 14.692Z" fill="white"/>
<g filter="url(#filter0_d_444_31)">
<path d="M21 41C32.0457 41 41 32.0457 41 21C41 9.95431 32.0457 1 21 1C9.95431 1 1 9.95431 1 21C1 32.0457 9.95431 41 21 41Z" fill="black"/>
</g>
<path d="M21 41C32.0457 41 41 32.0457 41 21C41 9.95431 32.0457 1 21 1C9.95431 1 1 9.95431 1 21C1 32.0457 9.95431 41 21 41Z" fill="#627EEA"/>
<path style="mix-blend-mode:soft-light" d="M21 41C32.0457 41 41 32.0457 41 21C41 9.95431 32.0457 1 21 1C9.95431 1 1 9.95431 1 21C1 32.0457 9.95431 41 21 41Z" fill="url(#paint0_linear_444_31)"/>
<path d="M20.9998 40.3334C31.6773 40.3334 40.3332 31.6775 40.3332 21C40.3332 10.3225 31.6773 1.66669 20.9998 1.66669C10.3223 1.66669 1.6665 10.3225 1.6665 21C1.6665 31.6775 10.3223 40.3334 20.9998 40.3334Z" stroke="black" stroke-opacity="0.097"/>
<g filter="url(#filter1_d_444_31)">
<path d="M21.6638 28.9573L31.6665 23.1547L21.6638 36.9933L11.6665 23.1533L21.6638 28.9547V28.9573ZM21.6638 5L31.6598 21.2933L21.6638 27.0973L11.6665 21.2933L21.6638 5Z" fill="black"/>
</g>
<path d="M21.6641 5V16.8267L31.6601 21.2933L21.6641 5Z" fill="white" fill-opacity="0.602"/>
<path d="M21.6638 5L11.6665 21.2933L21.6638 16.8267V5Z" fill="white"/>
<path d="M21.6641 28.9574V36.9934L31.6667 23.1547L21.6641 28.9574Z" fill="white" fill-opacity="0.602"/>
<path d="M21.6638 36.9934V28.9561L11.6665 23.1547L21.6638 36.9934Z" fill="white"/>
<path d="M21.6641 27.0973L31.6601 21.2933L21.6641 16.8293V27.0973Z" fill="white" fill-opacity="0.2"/>
<path d="M11.6665 21.2933L21.6638 27.0973V16.8293L11.6665 21.2933Z" fill="white" fill-opacity="0.602"/>
<defs>
<filter id="filter0_d_444_31" x="0" y="0.5" width="42" height="42" filterUnits="userSpaceOnUse" color-interpolation-filters="sRGB">
<feFlood flood-opacity="0" result="BackgroundImageFix"/>
<feColorMatrix in="SourceAlpha" type="matrix" values="0 0 0 0 0 0 0 0 0 0 0 0 0 0 0 0 0 0 127 0" result="hardAlpha"/>
<feOffset dy="0.5"/>
<feGaussianBlur stdDeviation="0.5"/>
<feComposite in2="hardAlpha" operator="out"/>
<feColorMatrix type="matrix" values="0 0 0 0 0 0 0 0 0 0 0 0 0 0 0 0 0 0 0.199474 0"/>
<feBlend mode="normal" in2="BackgroundImageFix" result="effect1_dropShadow_444_31"/>
<feBlend mode="normal" in="SourceGraphic" in2="effect1_dropShadow_444_31" result="shape"/>
</filter>
<filter id="filter1_d_444_31" x="10.6665" y="4.5" width="22" height="33.9933" filterUnits="userSpaceOnUse" color-interpolation-filters="sRGB">
<feFlood flood-opacity="0" result="BackgroundImageFix"/>
<feColorMatrix in="SourceAlpha" type="matrix" values="0 0 0 0 0 0 0 0 0 0 0 0 0 0 0 0 0 0 127 0" result="hardAlpha"/>
<feOffset dy="0.5"/>
<feGaussianBlur stdDeviation="0.5"/>
<feComposite in2="hardAlpha" operator="out"/>
<feColorMatrix type="matrix" values="0 0 0 0 0 0 0 0 0 0 0 0 0 0 0 0 0 0 0.204257 0"/>
<feBlend mode="normal" in2="BackgroundImageFix" result="effect1_dropShadow_444_31"/>
<feBlend mode="normal" in="SourceGraphic" in2="effect1_dropShadow_444_31" result="shape"/>
</filter>
<linearGradient id="paint0_linear_444_31" x1="21" y1="1" x2="21" y2="41" gradientUnits="userSpaceOnUse">
<stop stop-color="white" stop-opacity="0.5"/>
<stop offset="1" stop-opacity="0.5"/>
</linearGradient>
</defs>
</svg>
